<mxfile host="app.diagrams.net" modified="2023-11-15T04:49:27.002Z" agent="Mozilla/5.0 (Windows NT 10.0; Win64; x64) AppleWebKit/537.36 (KHTML, like Gecko) Chrome/117.0.0.0 Safari/537.36" etag="6EG6ZK0UA2ci05MtVNRA" version="22.1.1" type="device">
  <diagram name="Page-1" id="Ttimj0s3WgHhm8yNecoP">
    <mxGraphModel dx="1589" dy="887" grid="1" gridSize="10" guides="1" tooltips="1" connect="1" arrows="1" fold="1" page="1" pageScale="1" pageWidth="850" pageHeight="1100" math="0" shadow="0">
      <root>
        <mxCell id="0" />
        <mxCell id="1" parent="0" />
        <mxCell id="OUVuQ98shCbbS0Ae_FcH-1" style="edgeStyle=orthogonalEdgeStyle;rounded=0;orthogonalLoop=1;jettySize=auto;html=1;exitX=0.5;exitY=1;exitDx=0;exitDy=0;entryX=0.5;entryY=0;entryDx=0;entryDy=0;" edge="1" parent="1" source="zacW-tkZic4viop8daHt-2" target="zacW-tkZic4viop8daHt-3">
          <mxGeometry relative="1" as="geometry" />
        </mxCell>
        <mxCell id="zacW-tkZic4viop8daHt-2" value="Начало" style="rounded=1;whiteSpace=wrap;html=1;arcSize=50;" parent="1" vertex="1">
          <mxGeometry x="255" width="80" height="20" as="geometry" />
        </mxCell>
        <mxCell id="zacW-tkZic4viop8daHt-8" style="edgeStyle=orthogonalEdgeStyle;rounded=0;orthogonalLoop=1;jettySize=auto;html=1;exitX=0.5;exitY=1;exitDx=0;exitDy=0;entryX=0.5;entryY=0;entryDx=0;entryDy=0;" parent="1" source="zacW-tkZic4viop8daHt-3" target="zacW-tkZic4viop8daHt-7" edge="1">
          <mxGeometry relative="1" as="geometry" />
        </mxCell>
        <mxCell id="zacW-tkZic4viop8daHt-3" value="Создаем переменную хода игрока и устанавливаем ее в &quot;Нет&quot;&lt;br&gt;Создаем последовательность цифр и переменную для текущей цифры в последовательности" style="rounded=0;whiteSpace=wrap;html=1;" parent="1" vertex="1">
          <mxGeometry x="200" y="40" width="190" height="100" as="geometry" />
        </mxCell>
        <mxCell id="zacW-tkZic4viop8daHt-22" style="edgeStyle=orthogonalEdgeStyle;rounded=0;orthogonalLoop=1;jettySize=auto;html=1;exitX=0.5;exitY=1;exitDx=0;exitDy=0;entryX=0.5;entryY=0;entryDx=0;entryDy=0;" parent="1" source="zacW-tkZic4viop8daHt-7" target="zacW-tkZic4viop8daHt-9" edge="1">
          <mxGeometry relative="1" as="geometry" />
        </mxCell>
        <mxCell id="zacW-tkZic4viop8daHt-7" value="Бесконечный цикл" style="shape=loopLimit;whiteSpace=wrap;html=1;" parent="1" vertex="1">
          <mxGeometry x="245" y="160" width="100" height="50" as="geometry" />
        </mxCell>
        <mxCell id="zacW-tkZic4viop8daHt-23" value="Нет" style="edgeStyle=orthogonalEdgeStyle;rounded=0;orthogonalLoop=1;jettySize=auto;html=1;exitX=0;exitY=0.5;exitDx=0;exitDy=0;entryX=0.5;entryY=0;entryDx=0;entryDy=0;" parent="1" source="zacW-tkZic4viop8daHt-9" target="zacW-tkZic4viop8daHt-10" edge="1">
          <mxGeometry relative="1" as="geometry" />
        </mxCell>
        <mxCell id="zacW-tkZic4viop8daHt-46" style="edgeStyle=orthogonalEdgeStyle;rounded=0;orthogonalLoop=1;jettySize=auto;html=1;exitX=1;exitY=0.5;exitDx=0;exitDy=0;entryX=0.5;entryY=0;entryDx=0;entryDy=0;" parent="1" source="zacW-tkZic4viop8daHt-9" target="zacW-tkZic4viop8daHt-45" edge="1">
          <mxGeometry relative="1" as="geometry" />
        </mxCell>
        <mxCell id="zacW-tkZic4viop8daHt-47" value="Да" style="edgeLabel;html=1;align=center;verticalAlign=middle;resizable=0;points=[];" parent="zacW-tkZic4viop8daHt-46" vertex="1" connectable="0">
          <mxGeometry x="0.0959" y="-2" relative="1" as="geometry">
            <mxPoint as="offset" />
          </mxGeometry>
        </mxCell>
        <mxCell id="zacW-tkZic4viop8daHt-9" value="Ход игрока?" style="rhombus;whiteSpace=wrap;html=1;" parent="1" vertex="1">
          <mxGeometry x="250" y="240" width="90" height="80" as="geometry" />
        </mxCell>
        <mxCell id="zacW-tkZic4viop8daHt-24" style="edgeStyle=orthogonalEdgeStyle;rounded=0;orthogonalLoop=1;jettySize=auto;html=1;exitX=0.5;exitY=1;exitDx=0;exitDy=0;entryX=0.5;entryY=0;entryDx=0;entryDy=0;" parent="1" source="zacW-tkZic4viop8daHt-10" target="zacW-tkZic4viop8daHt-11" edge="1">
          <mxGeometry relative="1" as="geometry" />
        </mxCell>
        <mxCell id="zacW-tkZic4viop8daHt-10" value="Добавляем в последовательность цифр на запоминание случайное число" style="rounded=0;whiteSpace=wrap;html=1;" parent="1" vertex="1">
          <mxGeometry x="90" y="320" width="140" height="80" as="geometry" />
        </mxCell>
        <mxCell id="zacW-tkZic4viop8daHt-25" style="edgeStyle=orthogonalEdgeStyle;rounded=0;orthogonalLoop=1;jettySize=auto;html=1;exitX=0.5;exitY=1;exitDx=0;exitDy=0;entryX=0.5;entryY=0;entryDx=0;entryDy=0;" parent="1" source="zacW-tkZic4viop8daHt-11" target="zacW-tkZic4viop8daHt-21" edge="1">
          <mxGeometry relative="1" as="geometry" />
        </mxCell>
        <mxCell id="zacW-tkZic4viop8daHt-11" value="Показываем все цифры в последовательности на матрице по очереди и проигрываем соответствующий тон на пищалке" style="rounded=0;whiteSpace=wrap;html=1;" parent="1" vertex="1">
          <mxGeometry x="90" y="430" width="140" height="100" as="geometry" />
        </mxCell>
        <mxCell id="zacW-tkZic4viop8daHt-29" style="edgeStyle=orthogonalEdgeStyle;rounded=0;orthogonalLoop=1;jettySize=auto;html=1;exitX=0.5;exitY=1;exitDx=0;exitDy=0;entryX=0.5;entryY=0;entryDx=0;entryDy=0;" parent="1" source="zacW-tkZic4viop8daHt-13" target="zacW-tkZic4viop8daHt-15" edge="1">
          <mxGeometry relative="1" as="geometry" />
        </mxCell>
        <mxCell id="zacW-tkZic4viop8daHt-13" value="Ожидаем нажатия кнопки" style="shape=parallelogram;perimeter=parallelogramPerimeter;whiteSpace=wrap;html=1;fixedSize=1;" parent="1" vertex="1">
          <mxGeometry x="370" y="440" width="140" height="40" as="geometry" />
        </mxCell>
        <mxCell id="zacW-tkZic4viop8daHt-30" style="edgeStyle=orthogonalEdgeStyle;rounded=0;orthogonalLoop=1;jettySize=auto;html=1;exitX=0;exitY=0.5;exitDx=0;exitDy=0;entryX=0.5;entryY=0;entryDx=0;entryDy=0;" parent="1" source="zacW-tkZic4viop8daHt-15" target="zacW-tkZic4viop8daHt-18" edge="1">
          <mxGeometry relative="1" as="geometry" />
        </mxCell>
        <mxCell id="zacW-tkZic4viop8daHt-31" value="Нет" style="edgeLabel;html=1;align=center;verticalAlign=middle;resizable=0;points=[];" parent="zacW-tkZic4viop8daHt-30" vertex="1" connectable="0">
          <mxGeometry x="0.4737" y="-3" relative="1" as="geometry">
            <mxPoint as="offset" />
          </mxGeometry>
        </mxCell>
        <mxCell id="zacW-tkZic4viop8daHt-32" value="Да" style="edgeStyle=orthogonalEdgeStyle;rounded=0;orthogonalLoop=1;jettySize=auto;html=1;exitX=1;exitY=0.5;exitDx=0;exitDy=0;entryX=0.5;entryY=0;entryDx=0;entryDy=0;" parent="1" source="zacW-tkZic4viop8daHt-15" target="zacW-tkZic4viop8daHt-16" edge="1">
          <mxGeometry relative="1" as="geometry" />
        </mxCell>
        <mxCell id="zacW-tkZic4viop8daHt-15" value="Нажата кнопка соответствующая текущей цифре в последовательности?" style="rhombus;whiteSpace=wrap;html=1;" parent="1" vertex="1">
          <mxGeometry x="340" y="500" width="200" height="120" as="geometry" />
        </mxCell>
        <mxCell id="zacW-tkZic4viop8daHt-33" style="edgeStyle=orthogonalEdgeStyle;rounded=0;orthogonalLoop=1;jettySize=auto;html=1;exitX=0.5;exitY=1;exitDx=0;exitDy=0;entryX=0.5;entryY=0;entryDx=0;entryDy=0;" parent="1" source="zacW-tkZic4viop8daHt-16" target="zacW-tkZic4viop8daHt-19" edge="1">
          <mxGeometry relative="1" as="geometry" />
        </mxCell>
        <mxCell id="zacW-tkZic4viop8daHt-16" value="Проиграть соответствующий ей тон на пищалке и моргнуть светодиодной матрицей" style="rounded=0;whiteSpace=wrap;html=1;" parent="1" vertex="1">
          <mxGeometry x="570" y="600" width="120" height="100" as="geometry" />
        </mxCell>
        <mxCell id="zacW-tkZic4viop8daHt-36" style="edgeStyle=orthogonalEdgeStyle;rounded=0;orthogonalLoop=1;jettySize=auto;html=1;exitX=0.5;exitY=1;exitDx=0;exitDy=0;entryX=0.5;entryY=0;entryDx=0;entryDy=0;" parent="1" source="zacW-tkZic4viop8daHt-18" target="zacW-tkZic4viop8daHt-35" edge="1">
          <mxGeometry relative="1" as="geometry" />
        </mxCell>
        <mxCell id="zacW-tkZic4viop8daHt-18" value="Оповестить игрока о неправильно нажатой кнопке&lt;br&gt;(проигрываем тон неправильной кнопки и рисуем крест на матрице)" style="rounded=0;whiteSpace=wrap;html=1;" parent="1" vertex="1">
          <mxGeometry x="230" y="630" width="120" height="110" as="geometry" />
        </mxCell>
        <mxCell id="zacW-tkZic4viop8daHt-51" style="edgeStyle=orthogonalEdgeStyle;rounded=0;orthogonalLoop=1;jettySize=auto;html=1;exitX=0;exitY=0.5;exitDx=0;exitDy=0;entryX=0.5;entryY=0;entryDx=0;entryDy=0;" parent="1" source="zacW-tkZic4viop8daHt-19" target="zacW-tkZic4viop8daHt-50" edge="1">
          <mxGeometry relative="1" as="geometry" />
        </mxCell>
        <mxCell id="zacW-tkZic4viop8daHt-55" value="Нет" style="edgeLabel;html=1;align=center;verticalAlign=middle;resizable=0;points=[];" parent="zacW-tkZic4viop8daHt-51" vertex="1" connectable="0">
          <mxGeometry x="-0.1733" y="4" relative="1" as="geometry">
            <mxPoint as="offset" />
          </mxGeometry>
        </mxCell>
        <mxCell id="zacW-tkZic4viop8daHt-54" style="edgeStyle=orthogonalEdgeStyle;rounded=0;orthogonalLoop=1;jettySize=auto;html=1;exitX=1;exitY=0.5;exitDx=0;exitDy=0;entryX=0.5;entryY=0;entryDx=0;entryDy=0;" parent="1" source="zacW-tkZic4viop8daHt-19" target="zacW-tkZic4viop8daHt-39" edge="1">
          <mxGeometry relative="1" as="geometry" />
        </mxCell>
        <mxCell id="zacW-tkZic4viop8daHt-56" value="Да" style="edgeLabel;html=1;align=center;verticalAlign=middle;resizable=0;points=[];" parent="zacW-tkZic4viop8daHt-54" vertex="1" connectable="0">
          <mxGeometry x="-0.1397" y="6" relative="1" as="geometry">
            <mxPoint as="offset" />
          </mxGeometry>
        </mxCell>
        <mxCell id="zacW-tkZic4viop8daHt-19" value="Последняя цифра в последовательности?" style="rhombus;whiteSpace=wrap;html=1;" parent="1" vertex="1">
          <mxGeometry x="450" y="750" width="175" height="100" as="geometry" />
        </mxCell>
        <mxCell id="zacW-tkZic4viop8daHt-26" style="edgeStyle=orthogonalEdgeStyle;rounded=0;orthogonalLoop=1;jettySize=auto;html=1;exitX=0;exitY=0.5;exitDx=0;exitDy=0;" parent="1" source="zacW-tkZic4viop8daHt-21" edge="1">
          <mxGeometry relative="1" as="geometry">
            <mxPoint x="295" y="240" as="targetPoint" />
            <Array as="points">
              <mxPoint x="30" y="560" />
              <mxPoint x="30" y="240" />
            </Array>
          </mxGeometry>
        </mxCell>
        <mxCell id="zacW-tkZic4viop8daHt-21" value="Ход игрока - Да" style="rounded=0;whiteSpace=wrap;html=1;" parent="1" vertex="1">
          <mxGeometry x="110" y="550" width="100" height="20" as="geometry" />
        </mxCell>
        <mxCell id="zacW-tkZic4viop8daHt-38" style="edgeStyle=orthogonalEdgeStyle;rounded=0;orthogonalLoop=1;jettySize=auto;html=1;exitX=0.5;exitY=1;exitDx=0;exitDy=0;" parent="1" source="zacW-tkZic4viop8daHt-35" edge="1">
          <mxGeometry relative="1" as="geometry">
            <mxPoint x="30" y="560" as="targetPoint" />
          </mxGeometry>
        </mxCell>
        <mxCell id="zacW-tkZic4viop8daHt-35" value="Очищаем последовательность цифр&lt;br&gt;Устанавливаем текущую цифру в последовательности = 0&lt;br&gt;Ход игрока - Да" style="rounded=0;whiteSpace=wrap;html=1;" parent="1" vertex="1">
          <mxGeometry x="230" y="760" width="120" height="140" as="geometry" />
        </mxCell>
        <mxCell id="zacW-tkZic4viop8daHt-58" style="edgeStyle=orthogonalEdgeStyle;rounded=0;orthogonalLoop=1;jettySize=auto;html=1;exitX=1;exitY=0.5;exitDx=0;exitDy=0;entryX=0.5;entryY=0;entryDx=0;entryDy=0;" parent="1" source="zacW-tkZic4viop8daHt-39" target="zacW-tkZic4viop8daHt-57" edge="1">
          <mxGeometry relative="1" as="geometry" />
        </mxCell>
        <mxCell id="zacW-tkZic4viop8daHt-68" style="edgeStyle=orthogonalEdgeStyle;rounded=0;orthogonalLoop=1;jettySize=auto;html=1;exitX=0;exitY=0.5;exitDx=0;exitDy=0;entryX=0.5;entryY=0;entryDx=0;entryDy=0;" parent="1" source="zacW-tkZic4viop8daHt-39" target="zacW-tkZic4viop8daHt-67" edge="1">
          <mxGeometry relative="1" as="geometry" />
        </mxCell>
        <mxCell id="zacW-tkZic4viop8daHt-39" value="Длина последовательности цифр равна 16?" style="rhombus;whiteSpace=wrap;html=1;" parent="1" vertex="1">
          <mxGeometry x="570" y="870" width="150" height="90" as="geometry" />
        </mxCell>
        <mxCell id="zacW-tkZic4viop8daHt-49" style="edgeStyle=orthogonalEdgeStyle;rounded=0;orthogonalLoop=1;jettySize=auto;html=1;exitX=0;exitY=0.5;exitDx=0;exitDy=0;" parent="1" source="zacW-tkZic4viop8daHt-43" edge="1">
          <mxGeometry relative="1" as="geometry">
            <mxPoint x="440" y="404.42857142857156" as="targetPoint" />
          </mxGeometry>
        </mxCell>
        <mxCell id="zacW-tkZic4viop8daHt-43" value="1" style="ellipse;whiteSpace=wrap;html=1;aspect=fixed;" parent="1" vertex="1">
          <mxGeometry x="510" y="390" width="30" height="30" as="geometry" />
        </mxCell>
        <mxCell id="zacW-tkZic4viop8daHt-48" style="edgeStyle=orthogonalEdgeStyle;rounded=0;orthogonalLoop=1;jettySize=auto;html=1;exitX=0.5;exitY=1;exitDx=0;exitDy=0;entryX=0.5;entryY=0;entryDx=0;entryDy=0;" parent="1" source="zacW-tkZic4viop8daHt-45" target="zacW-tkZic4viop8daHt-13" edge="1">
          <mxGeometry relative="1" as="geometry" />
        </mxCell>
        <mxCell id="zacW-tkZic4viop8daHt-45" value="Текущая цифра в последовательности = 0" style="rounded=0;whiteSpace=wrap;html=1;" parent="1" vertex="1">
          <mxGeometry x="380" y="320" width="120" height="60" as="geometry" />
        </mxCell>
        <mxCell id="zacW-tkZic4viop8daHt-53" style="edgeStyle=orthogonalEdgeStyle;rounded=0;orthogonalLoop=1;jettySize=auto;html=1;exitX=0.5;exitY=1;exitDx=0;exitDy=0;entryX=0.5;entryY=0;entryDx=0;entryDy=0;" parent="1" source="zacW-tkZic4viop8daHt-50" target="zacW-tkZic4viop8daHt-52" edge="1">
          <mxGeometry relative="1" as="geometry" />
        </mxCell>
        <mxCell id="zacW-tkZic4viop8daHt-50" value="Следующая цифра в последовательности" style="rounded=0;whiteSpace=wrap;html=1;" parent="1" vertex="1">
          <mxGeometry x="360" y="860" width="125" height="40" as="geometry" />
        </mxCell>
        <mxCell id="zacW-tkZic4viop8daHt-52" value="1" style="ellipse;whiteSpace=wrap;html=1;aspect=fixed;" parent="1" vertex="1">
          <mxGeometry x="407.5" y="930" width="30" height="30" as="geometry" />
        </mxCell>
        <mxCell id="zacW-tkZic4viop8daHt-60" style="edgeStyle=orthogonalEdgeStyle;rounded=0;orthogonalLoop=1;jettySize=auto;html=1;exitX=0.5;exitY=1;exitDx=0;exitDy=0;entryX=0.5;entryY=0;entryDx=0;entryDy=0;" parent="1" source="zacW-tkZic4viop8daHt-57" target="zacW-tkZic4viop8daHt-59" edge="1">
          <mxGeometry relative="1" as="geometry" />
        </mxCell>
        <mxCell id="zacW-tkZic4viop8daHt-57" value="Поздравляем, ты выйграл!" style="rounded=0;whiteSpace=wrap;html=1;" parent="1" vertex="1">
          <mxGeometry x="720" y="960" width="120" height="40" as="geometry" />
        </mxCell>
        <mxCell id="zacW-tkZic4viop8daHt-59" value="Выход из игры / начало новой игры по желанию разработчика&amp;nbsp;" style="rounded=0;whiteSpace=wrap;html=1;" parent="1" vertex="1">
          <mxGeometry x="720" y="1030" width="120" height="60" as="geometry" />
        </mxCell>
        <mxCell id="zacW-tkZic4viop8daHt-61" value="" style="strokeWidth=2;html=1;shape=mxgraph.flowchart.annotation_2;align=left;labelPosition=right;pointerEvents=1;rotation=90;" parent="1" vertex="1">
          <mxGeometry x="620" y="970" width="50" height="110" as="geometry" />
        </mxCell>
        <mxCell id="zacW-tkZic4viop8daHt-62" value="Количество цифр,&lt;br&gt;которое нужно&lt;br&gt;запомнить, чтобы&lt;br&gt;выйграть игру&lt;br&gt;настраивается&lt;br&gt;разработчиком" style="text;html=1;align=center;verticalAlign=middle;resizable=0;points=[];autosize=1;strokeColor=none;fillColor=none;" parent="1" vertex="1">
          <mxGeometry x="585" y="1020" width="120" height="100" as="geometry" />
        </mxCell>
        <mxCell id="zacW-tkZic4viop8daHt-64" value="" style="endArrow=none;dashed=1;html=1;rounded=0;entryX=0.5;entryY=1;entryDx=0;entryDy=0;exitX=0;exitY=0.5;exitDx=0;exitDy=0;exitPerimeter=0;strokeWidth=3;" parent="1" source="zacW-tkZic4viop8daHt-61" target="zacW-tkZic4viop8daHt-39" edge="1">
          <mxGeometry width="50" height="50" relative="1" as="geometry">
            <mxPoint x="550" y="1020" as="sourcePoint" />
            <mxPoint x="600" y="970" as="targetPoint" />
          </mxGeometry>
        </mxCell>
        <mxCell id="zacW-tkZic4viop8daHt-69" style="edgeStyle=orthogonalEdgeStyle;rounded=0;orthogonalLoop=1;jettySize=auto;html=1;exitX=0.5;exitY=1;exitDx=0;exitDy=0;" parent="1" source="zacW-tkZic4viop8daHt-67" edge="1">
          <mxGeometry relative="1" as="geometry">
            <mxPoint x="30" y="840" as="targetPoint" />
          </mxGeometry>
        </mxCell>
        <mxCell id="zacW-tkZic4viop8daHt-67" value="Ход игрока - Нет" style="rounded=0;whiteSpace=wrap;html=1;" parent="1" vertex="1">
          <mxGeometry x="440" y="1020" width="100" height="20" as="geometry" />
        </mxCell>
        <mxCell id="zacW-tkZic4viop8daHt-70" value="&lt;font style=&quot;font-size: 20px;&quot;&gt;Не забываем, что в программировании&lt;br&gt;счет начинается с нуля, а не с единицы!&lt;br&gt;Соответственно, если текущая цифра в&lt;br&gt;последовательности&amp;nbsp;равна нулю, это означает,&lt;br&gt;что текущая цифра в последовательности - первая!&lt;/font&gt;" style="text;html=1;align=center;verticalAlign=middle;resizable=0;points=[];autosize=1;strokeColor=none;fillColor=none;" parent="1" vertex="1">
          <mxGeometry x="340" y="110" width="510" height="130" as="geometry" />
        </mxCell>
        <mxCell id="OUVuQ98shCbbS0Ae_FcH-2" value="&lt;br&gt;" style="strokeWidth=2;html=1;shape=mxgraph.flowchart.annotation_2;align=left;labelPosition=right;pointerEvents=1;rotation=-90;" vertex="1" parent="1">
          <mxGeometry x="570" width="50" height="490" as="geometry" />
        </mxCell>
        <mxCell id="OUVuQ98shCbbS0Ae_FcH-3" value="" style="endArrow=none;dashed=1;html=1;rounded=0;entryX=0;entryY=0.5;entryDx=0;entryDy=0;entryPerimeter=0;strokeWidth=4;" edge="1" parent="1" target="OUVuQ98shCbbS0Ae_FcH-2">
          <mxGeometry width="50" height="50" relative="1" as="geometry">
            <mxPoint x="595" y="350" as="sourcePoint" />
            <mxPoint x="480" y="270" as="targetPoint" />
          </mxGeometry>
        </mxCell>
        <mxCell id="OUVuQ98shCbbS0Ae_FcH-4" value="" style="endArrow=none;dashed=1;html=1;rounded=0;exitX=1;exitY=0.5;exitDx=0;exitDy=0;strokeWidth=4;" edge="1" parent="1" source="zacW-tkZic4viop8daHt-45">
          <mxGeometry width="50" height="50" relative="1" as="geometry">
            <mxPoint x="430" y="320" as="sourcePoint" />
            <mxPoint x="590" y="350" as="targetPoint" />
          </mxGeometry>
        </mxCell>
      </root>
    </mxGraphModel>
  </diagram>
</mxfile>
